<svg xmlns="http://www.w3.org/2000/svg" version="1.0" viewBox="0 0 512 512"><path fill="#FFF" fill-opacity=".1" d="M134.8 29.7c1.2.2 3 .2 4 0 .9-.3-.1-.5-2.3-.4-2.2 0-3 .2-1.7.4zm239 0c1.2.2 3 .2 4 0 .9-.3-.1-.5-2.3-.4-2.2 0-3 .2-1.7.4zm-87.9 38-3.4 3.8 3.8-3.4c2-1.9 3.7-3.6 3.7-3.8 0-.8-.8 0-4.1 3.4zm-60.9-.2c1.3 1.4 2.6 2.5 2.8 2.5.3 0-.5-1.1-1.8-2.5s-2.6-2.5-2.8-2.5c-.3 0 .5 1.1 1.8 2.5zM38.9 71.7c-1.3 1.6-1.2 1.7.4.4.9-.7 1.7-1.5 1.7-1.7 0-.8-.8-.3-2.1 1.3zM244 157.4c0 .2.8 1 1.8 1.7 1.5 1.3 1.6 1.2.3-.4s-2.1-2.1-2.1-1.3zm21.9 1.3c-1.3 1.6-1.2 1.7.4.4.9-.7 1.7-1.5 1.7-1.7 0-.8-.8-.3-2.1 1.3zm215.2 12.9c0 1.1.3 1.4.6.6.3-.7.2-1.6-.1-1.9-.3-.4-.6.2-.5 1.3zm-451 11c0 1.1.3 1.4.6.6.3-.7.2-1.6-.1-1.9-.3-.4-.6.2-.5 1.3zm451 0c0 1.1.3 1.4.6.6.3-.7.2-1.6-.1-1.9-.3-.4-.6.2-.5 1.3zM94 303.3c0 .2 1.5 1.6 3.3 3.3l3.2 2.9-2.9-3.3c-2.8-3-3.6-3.7-3.6-2.9zm319.9 3.4-3.4 3.8 3.8-3.4c2-1.9 3.7-3.6 3.7-3.8 0-.8-.8 0-4.1 3.4zM106 315.5c1.9 1.9 3.6 3.5 3.9 3.5.3 0-1-1.6-2.9-3.5s-3.6-3.5-3.9-3.5c-.3 0 1 1.6 2.9 3.5zm297.9 1.2-3.4 3.8 3.8-3.4c2-1.9 3.7-3.6 3.7-3.8 0-.8-.8 0-4.1 3.4zM66 318.4c0 .2.8 1 1.8 1.7 1.5 1.3 1.6 1.2.3-.4s-2.1-2.1-2.1-1.3zm59 15c0 .2.8 1 1.8 1.7 1.5 1.3 1.6 1.2.3-.4s-2.1-2.1-2.1-1.3zm289.9 15.3c-1.3 1.6-1.2 1.7.4.4 1.6-1.3 2.1-2.1 1.3-2.1-.2 0-1 .8-1.7 1.7z"/><path fill="#FFF" fill-opacity=".2" d="m42.9 67.7-2.4 2.8 2.8-2.4c2.5-2.3 3.2-3.1 2.4-3.1-.2 0-1.4 1.2-2.8 2.7zM466 65.3c0 .2 1.5 1.6 3.3 3.3l3.2 2.9-2.9-3.3c-2.8-3-3.6-3.7-3.6-2.9zM446.5 89c1 1.1 2 2 2.3 2 .3 0-.3-.9-1.3-2s-2-2-2.3-2c-.3 0 .3.9 1.3 2zM63.4 90.2l-1.9 2.3 2.3-1.9c2.1-1.8 2.7-2.6 1.9-2.6-.2 0-1.2 1-2.3 2.2zM91 300.4c0 .2.8 1 1.8 1.7 1.5 1.3 1.6 1.2.3-.4s-2.1-2.1-2.1-1.3zm327.9 1.3c-1.3 1.6-1.2 1.7.4.4 1.6-1.3 2.1-2.1 1.3-2.1-.2 0-1 .8-1.7 1.7zM112 321.5c1.3 1.4 2.6 2.5 2.8 2.5.3 0-.5-1.1-1.8-2.5s-2.6-2.5-2.8-2.5c-.3 0 .5 1.1 1.8 2.5zm285.9 1.2-2.4 2.8 2.8-2.4c1.5-1.4 2.7-2.6 2.7-2.8 0-.8-.8-.1-3.1 2.4zm44-1c-1.3 1.6-1.2 1.7.4.4.9-.7 1.7-1.5 1.7-1.7 0-.8-.8-.3-2.1 1.3zM92.5 345c1 1.1 2 2 2.3 2 .3 0-.3-.9-1.3-2s-2-2-2.3-2c-.3 0 .3.9 1.3 2zm325.4.7c-1.3 1.6-1.2 1.7.4.4 1.6-1.3 2.1-2.1 1.3-2.1-.2 0-1 .8-1.7 1.7zM107 358.4c0 .2.8 1 1.8 1.7 1.5 1.3 1.6 1.2.3-.4s-2.1-2.1-2.1-1.3z"/><path fill="#FFF" fill-opacity=".3" d="M72.5 325c1 1.1 2 2 2.3 2 .3 0-.3-.9-1.3-2s-2-2-2.3-2c-.3 0 .3.9 1.3 2zm366.4-.3c-1.3 1.6-1.2 1.7.4.4.9-.7 1.7-1.5 1.7-1.7 0-.8-.8-.3-2.1 1.3zm-323.9-.3c0 .2.8 1 1.8 1.7 1.5 1.3 1.6 1.2.3-.4s-2.1-2.1-2.1-1.3zm-27 16c0 .2.8 1 1.8 1.7 1.5 1.3 1.6 1.2.3-.4s-2.1-2.1-2.1-1.3zm333.4 1.8-1.9 2.3 2.3-1.9c1.2-1.1 2.2-2.1 2.2-2.3 0-.8-.8-.2-2.6 1.9z"/><path fill="#FFF" fill-opacity=".4" d="m307.4 89.2-2.9 3.3 3.3-2.9c1.7-1.7 3.2-3.1 3.2-3.3 0-.8-.8-.1-3.6 2.9zm-103.4.3c1.3 1.4 2.6 2.5 2.8 2.5.3 0-.5-1.1-1.8-2.5s-2.6-2.5-2.8-2.5c-.3 0 .5 1.1 1.8 2.5zm230.9 239.2-2.4 2.8 2.8-2.4c1.5-1.4 2.7-2.6 2.7-2.8 0-.8-.8-.1-3.1 2.4zM75 327.4c0 .2.8 1 1.8 1.7 1.5 1.3 1.6 1.2.3-.4s-2.1-2.1-2.1-1.3zm8.5 8.6c2.1 2.2 4.1 4 4.4 4 .3 0-1.3-1.8-3.4-4-2.1-2.2-4.1-4-4.4-4-.3 0 1.3 1.8 3.4 4zm344 .2-4 4.3 4.3-4c3.9-3.6 4.7-4.5 3.9-4.5-.2 0-2.1 1.9-4.2 4.2z"/><path fill="#FFF" fill-opacity=".8" d="M134.3 59.7c.9.2 2.3.2 3 0 .6-.3-.1-.5-1.8-.5-1.6 0-2.2.2-1.2.5zm241 0c.9.2 2.3.2 3 0 .6-.3-.1-.5-1.8-.5-1.6 0-2.2.2-1.2.5zM221.5 65c1 1.1 2 2 2.3 2 .3 0-.3-.9-1.3-2s-2-2-2.3-2c-.3 0 .3.9 1.3 2zm67.4.7-2.4 2.8 2.8-2.4c2.5-2.3 3.2-3.1 2.4-3.1-.2 0-1.4 1.2-2.8 2.7zM227.5 71c1 1.1 2 2 2.3 2 .3 0-.3-.9-1.3-2s-2-2-2.3-2c-.3 0 .3.9 1.3 2zm56.4-.3c-1.3 1.6-1.2 1.7.4.4 1.6-1.3 2.1-2.1 1.3-2.1-.2 0-1 .8-1.7 1.7zM.1 170.6c0 1.1.3 1.4.6.6.3-.7.2-1.6-.1-1.9-.3-.4-.6.2-.5 1.3zm511.1.4c0 1.4.2 1.9.5 1.2.2-.6.2-1.8 0-2.5-.3-.6-.5-.1-.5 1.3zm0 12c0 1.4.2 1.9.5 1.2.2-.6.2-1.8 0-2.5-.3-.6-.5-.1-.5 1.3zm-511.1.6c0 1.1.3 1.4.6.6.3-.7.2-1.6-.1-1.9-.3-.4-.6.2-.5 1.3zM100.5 311c3.3 3.3 6.2 6 6.4 6 .3 0-2.1-2.7-5.4-6-3.3-3.3-6.2-6-6.4-6-.3 0 2.1 2.7 5.4 6zm309.5.7-6.5 6.8 6.8-6.5c6.2-6 7.2-7 6.4-7-.1 0-3.2 3-6.7 6.7zm-345 4.7c0 .2.8 1 1.8 1.7 1.5 1.3 1.6 1.2.3-.4s-2.1-2.1-2.1-1.3zm379.9 1.3c-1.3 1.6-1.2 1.7.4.4.9-.7 1.7-1.5 1.7-1.7 0-.8-.8-.3-2.1 1.3zm-59 17c-1.3 1.6-1.2 1.7.4.4.9-.7 1.7-1.5 1.7-1.7 0-.8-.8-.3-2.1 1.3zM96 347.4c0 .2.8 1 1.8 1.7 1.5 1.3 1.6 1.2.3-.4s-2.1-2.1-2.1-1.3z"/><path fill="#FFF" fill-opacity=".9" d="M214 58.4c0 .2.8 1 1.8 1.7 1.5 1.3 1.6 1.2.3-.4s-2.1-2.1-2.1-1.3zm81.9 1.3c-1.3 1.6-1.2 1.7.4.4.9-.7 1.7-1.5 1.7-1.7 0-.8-.8-.3-2.1 1.3zm-165.1 0c.7.3 1.6.2 1.9-.1.4-.3-.2-.6-1.3-.5-1.1 0-1.4.3-.6.6zm249 0c.7.3 1.6.2 1.9-.1.4-.3-.2-.6-1.3-.5-1.1 0-1.4.3-.6.6zM43.5 68.2l-4 4.3 4.3-4c2.3-2.1 4.2-4 4.2-4.2 0-.8-.9 0-4.5 3.9zm424-.2c2.1 2.2 4.1 4 4.4 4 .3 0-1.3-1.8-3.4-4-2.1-2.2-4.1-4-4.4-4-.3 0 1.3 1.8 3.4 4zM33.9 78.7c-1.3 1.6-1.2 1.7.4.4.9-.7 1.7-1.5 1.7-1.7 0-.8-.8-.3-2.1 1.3zM476 77.4c0 .2.8 1 1.8 1.7 1.5 1.3 1.6 1.2.3-.4s-2.1-2.1-2.1-1.3zM63.5 89.2l-4 4.3 4.3-4c3.9-3.6 4.7-4.5 3.9-4.5-.2 0-2.1 1.9-4.2 4.2zm384-.2c2.1 2.2 4.1 4 4.4 4 .3 0-1.3-1.8-3.4-4-2.1-2.2-4.1-4-4.4-4-.3 0 1.3 1.8 3.4 4zM.3 177c0 3 .2 4.3.4 2.7.2-1.5.2-3.9 0-5.5-.2-1.5-.4-.2-.4 2.8zm511 0c0 2.5.2 3.5.4 2.2.2-1.2.2-3.2 0-4.5-.2-1.2-.4-.2-.4 2.3zM79 288.4c0 .2.8 1 1.8 1.7 1.5 1.3 1.6 1.2.3-.4s-2.1-2.1-2.1-1.3zm351.9 1.3c-1.3 1.6-1.2 1.7.4.4 1.6-1.3 2.1-2.1 1.3-2.1-.2 0-1 .8-1.7 1.7zM91 301.5c1.9 1.9 3.6 3.5 3.9 3.5.3 0-1-1.6-2.9-3.5s-3.6-3.5-3.9-3.5c-.3 0 1 1.6 2.9 3.5zm328.9.2-3.4 3.8 3.8-3.4c2-1.9 3.7-3.6 3.7-3.8 0-.8-.8 0-4.1 3.4zM58 308.4c0 .2.8 1 1.8 1.7 1.5 1.3 1.6 1.2.3-.4s-2.1-2.1-2.1-1.3zm393.9 1.3c-1.3 1.6-1.2 1.7.4.4.9-.7 1.7-1.5 1.7-1.7 0-.8-.8-.3-2.1 1.3zM112 322.5c3 3 5.7 5.5 5.9 5.5.3 0-1.9-2.5-4.9-5.5-3-3-5.7-5.5-5.9-5.5-.3 0 1.9 2.5 4.9 5.5zm286.5.7-5 5.3 5.3-5c2.8-2.7 5.2-5.1 5.2-5.2 0-.8-.9.1-5.5 4.9zm-327-.2c2.1 2.2 4.1 4 4.4 4 .3 0-1.3-1.8-3.4-4-2.1-2.2-4.1-4-4.4-4-.3 0 1.3 1.8 3.4 4zm367.5.5c-2.4 2.5-4.2 4.5-3.9 4.5.3 0 2.5-2 4.9-4.5 2.4-2.5 4.2-4.5 3.9-4.5-.3 0-2.5 2-4.9 4.5zm-313 11.8c0 .2 1.5 1.6 3.3 3.3l3.2 2.9-2.9-3.3c-2.8-3-3.6-3.7-3.6-2.9zm255.9 3.4-2.4 2.8 2.8-2.4c2.5-2.3 3.2-3.1 2.4-3.1-.2 0-1.4 1.2-2.8 2.7zM91 342.2c2.4 2.7 4.5 4.8 4.7 4.8.8 0 0-.9-4.4-5l-4.8-4.5 4.5 4.7zm328.5 1-5 5.3 5.3-5c2.8-2.7 5.2-5.1 5.2-5.2 0-.8-.9.1-5.5 4.9zM138 346.4c0 .2.8 1 1.8 1.7 1.5 1.3 1.6 1.2.3-.4s-2.1-2.1-2.1-1.3zm233.9 1.3c-1.3 1.6-1.2 1.7.4.4 1.6-1.3 2.1-2.1 1.3-2.1-.2 0-1 .8-1.7 1.7zM147 354.4c0 .2.8 1 1.8 1.7 1.5 1.3 1.6 1.2.3-.4s-2.1-2.1-2.1-1.3zm215.9 1.3c-1.3 1.6-1.2 1.7.4.4.9-.7 1.7-1.5 1.7-1.7 0-.8-.8-.3-2.1 1.3zM108 358.5c1.3 1.4 2.6 2.5 2.8 2.5.3 0-.5-1.1-1.8-2.5s-2.6-2.5-2.8-2.5c-.3 0 .5 1.1 1.8 2.5zm294.9.2-2.4 2.8 2.8-2.4c1.5-1.4 2.7-2.6 2.7-2.8 0-.8-.8-.1-3.1 2.4zM155 361.4c0 .2.8 1 1.8 1.7 1.5 1.3 1.6 1.2.3-.4s-2.1-2.1-2.1-1.3zm199.9 1.3c-1.3 1.6-1.2 1.7.4.4 1.6-1.3 2.1-2.1 1.3-2.1-.2 0-1 .8-1.7 1.7zM118.5 368c1 1.1 2 2 2.3 2 .3 0-.3-.9-1.3-2s-2-2-2.3-2c-.3 0 .3.9 1.3 2zm274.4-.3c-1.3 1.6-1.2 1.7.4.4 1.6-1.3 2.1-2.1 1.3-2.1-.2 0-1 .8-1.7 1.7zm-229.9.7c0 .2.8 1 1.8 1.7 1.5 1.3 1.6 1.2.3-.4s-2.1-2.1-2.1-1.3zm183.9 1.3c-1.3 1.6-1.2 1.7.4.4 1.6-1.3 2.1-2.1 1.3-2.1-.2 0-1 .8-1.7 1.7zM170 374.4c0 .2.8 1 1.8 1.7 1.5 1.3 1.6 1.2.3-.4s-2.1-2.1-2.1-1.3zm169.9 1.3c-1.3 1.6-1.2 1.7.4.4.9-.7 1.7-1.5 1.7-1.7 0-.8-.8-.3-2.1 1.3zm-212.9-.3c0 .2.8 1 1.8 1.7 1.5 1.3 1.6 1.2.3-.4s-2.1-2.1-2.1-1.3zm255.9 1.3c-1.3 1.6-1.2 1.7.4.4 1.6-1.3 2.1-2.1 1.3-2.1-.2 0-1 .8-1.7 1.7zM177 380.4c0 .2.8 1 1.8 1.7 1.5 1.3 1.6 1.2.3-.4s-2.1-2.1-2.1-1.3zm155.9 1.3c-1.3 1.6-1.2 1.7.4.4 1.6-1.3 2.1-2.1 1.3-2.1-.2 0-1 .8-1.7 1.7zm-197.9.7c0 .2.8 1 1.8 1.7 1.5 1.3 1.6 1.2.3-.4s-2.1-2.1-2.1-1.3zm239.9 1.3c-1.3 1.6-1.2 1.7.4.4 1.6-1.3 2.1-2.1 1.3-2.1-.2 0-1 .8-1.7 1.7zM184 386.4c0 .2.8 1 1.8 1.7 1.5 1.3 1.6 1.2.3-.4s-2.1-2.1-2.1-1.3zm141.9 1.3c-1.3 1.6-1.2 1.7.4.4 1.6-1.3 2.1-2.1 1.3-2.1-.2 0-1 .8-1.7 1.7zM143 389.4c0 .2.8 1 1.8 1.7 1.5 1.3 1.6 1.2.3-.4s-2.1-2.1-2.1-1.3zm223.9 1.3c-1.3 1.6-1.2 1.7.4.4 1.6-1.3 2.1-2.1 1.3-2.1-.2 0-1 .8-1.7 1.7zM191 392.4c0 .2.8 1 1.8 1.7 1.5 1.3 1.6 1.2.3-.4s-2.1-2.1-2.1-1.3zm127.9 1.3c-1.3 1.6-1.2 1.7.4.4 1.6-1.3 2.1-2.1 1.3-2.1-.2 0-1 .8-1.7 1.7zm41 3c-1.3 1.6-1.2 1.7.4.4.9-.7 1.7-1.5 1.7-1.7 0-.8-.8-.3-2.1 1.3zm-48 3c-1.3 1.6-1.2 1.7.4.4.9-.7 1.7-1.5 1.7-1.7 0-.8-.8-.3-2.1 1.3zm41 3c-1.3 1.6-1.2 1.7.4.4 1.6-1.3 2.1-2.1 1.3-2.1-.2 0-1 .8-1.7 1.7zm-7 6c-1.3 1.6-1.2 1.7.4.4.9-.7 1.7-1.5 1.7-1.7 0-.8-.8-.3-2.1 1.3zm-7 6c-1.3 1.6-1.2 1.7.4.4.9-.7 1.7-1.5 1.7-1.7 0-.8-.8-.3-2.1 1.3zm-7 6c-1.3 1.6-1.2 1.7.4.4 1.6-1.3 2.1-2.1 1.3-2.1-.2 0-1 .8-1.7 1.7zm-106.9.7c0 .2.8 1 1.8 1.7 1.5 1.3 1.6 1.2.3-.4s-2.1-2.1-2.1-1.3zm7 6c0 .2.8 1 1.8 1.7 1.5 1.3 1.6 1.2.3-.4s-2.1-2.1-2.1-1.3zm15 13c0 .2.8 1 1.8 1.7 1.5 1.3 1.6 1.2.3-.4s-2.1-2.1-2.1-1.3zm15.9 1.3c-1.3 1.6-1.2 1.7.4.4 1.6-1.3 2.1-2.1 1.3-2.1-.2 0-1 .8-1.7 1.7zm-57.9.7c0 .2.8 1 1.8 1.7 1.5 1.3 1.6 1.2.3-.4s-2.1-2.1-2.1-1.3zm50 5c.7.7 1.3.7 2 0 .6-.6.3-1-1-1s-1.6.4-1 1zm-43 1c0 .2.8 1 1.8 1.7 1.5 1.3 1.6 1.2.3-.4s-2.1-2.1-2.1-1.3zm85.9 1.3c-1.3 1.6-1.2 1.7.4.4 1.6-1.3 2.1-2.1 1.3-2.1-.2 0-1 .8-1.7 1.7zM227 461.4c0 .2.8 1 1.8 1.7 1.5 1.3 1.6 1.2.3-.4s-2.1-2.1-2.1-1.3zm55.9 1.3c-1.3 1.6-1.2 1.7.4.4 1.6-1.3 2.1-2.1 1.3-2.1-.2 0-1 .8-1.7 1.7zM242 474.4c0 .2.8 1 1.8 1.7 1.5 1.3 1.6 1.2.3-.4s-2.1-2.1-2.1-1.3zm25.9 1.3c-1.3 1.6-1.2 1.7.4.4 1.6-1.3 2.1-2.1 1.3-2.1-.2 0-1 .8-1.7 1.7z"/><path fill="#FFF" d="M122 31.1c-40.5 4.6-75.3 26.7-98.2 62.5-9.1 14.2-17.5 36.9-20.8 55.8-2.5 14.4-2.7 38.7-.5 52.1 5.6 34.4 23.1 68.4 53.8 104 22.4 26.2 51.1 52.9 118.7 110.9 25 21.4 51.8 44.5 59.6 51.2 15.5 13.3 19.1 15.3 25.1 13.3 2.1-.7 9.5-6.3 17.7-13.3 7.8-6.7 34.6-29.8 59.6-51.2 67.6-58 96.1-84.6 118.7-110.9 31-35.9 48.4-69.8 54-105 2.1-13.7 1.3-43-1.6-56.7-6.4-29.7-19.5-54.2-40.1-74.9-25.3-25.5-56-38.3-92-38.2-25.9 0-46.6 6.3-68.5 20.8-17.7 11.7-36.7 33-48.5 54.2-1.3 2.4-2.7 4.3-3 4.3-.3 0-1.7-1.9-3-4.3-24-43.2-62-70.2-105.1-74.7-11.3-1.1-15.1-1.1-25.9.1zm37.5 31.4c17.3 4.4 31.4 12.7 45.2 26.7 14.5 14.6 24.7 30.6 33.9 53.1 2.9 7.1 6.3 14.1 7.6 15.4 4.9 5.3 14.7 5.3 19.6 0 1.3-1.3 4.7-8.3 7.6-15.4 17.4-42.6 44.2-70.2 77.1-79.4 10.9-3 25-4.2 36.3-2.9 13.3 1.4 22.9 4.2 34.7 10 28.3 13.9 47.9 39.6 57.2 75 3.4 12.9 4.3 39.7 1.9 54-6.6 37.6-30.1 74.1-77 119.7-20.1 19.6-40.9 38-98.8 87.6L256 448l-48.7-41.7c-58-49.7-78.8-68.1-98.9-87.6-46.9-45.6-70.4-82.1-77-119.7-2.4-14.3-1.5-41.1 1.9-54 9.3-35.4 28.9-61.1 57.2-75 22-10.8 45.8-13.4 69-7.5z"/></svg>